<mxfile host="app.diagrams.net" modified="2021-10-08T18:37:13.943Z" agent="5.0 (Windows NT 10.0; Win64; x64) AppleWebKit/537.36 (KHTML, like Gecko) Chrome/94.0.4606.71 Safari/537.36 Edg/94.0.992.38" etag="TXulWQXy1wmwH8B_FhGw" version="15.4.3" type="github">
  <diagram id="wFE0QG_FPsp0jaGvCLVb" name="Page-1">
    <mxGraphModel dx="868" dy="482" grid="1" gridSize="10" guides="1" tooltips="1" connect="1" arrows="1" fold="1" page="1" pageScale="1" pageWidth="850" pageHeight="1100" background="#DAD2D8" math="0" shadow="0">
      <root>
        <mxCell id="0" />
        <mxCell id="1" parent="0" />
        <mxCell id="WODbrCsjnOtg-aM8YEpo-4" value="" style="ellipse;whiteSpace=wrap;html=1;fillColor=#FAE5C7;strokeColor=#0F8B8D;fontColor=#143642;" vertex="1" parent="1">
          <mxGeometry x="90" y="70" width="150" height="80" as="geometry" />
        </mxCell>
        <mxCell id="WODbrCsjnOtg-aM8YEpo-9" value="" style="verticalLabelPosition=middle;verticalAlign=top;shape=mxgraph.basic.patternFillRect;fillStyle=diag;step=5;fillStrokeWidth=0.2;fillStrokeColor=#dddddd;rounded=0;labelBackgroundColor=none;labelBorderColor=#000000;sketch=0;fontFamily=Times New Roman;fontSize=16;labelPosition=center;align=center;horizontal=0;" vertex="1" parent="1">
          <mxGeometry x="305" y="140" width="120" height="60" as="geometry" />
        </mxCell>
      </root>
    </mxGraphModel>
  </diagram>
</mxfile>
